<svg xmlns="http://www.w3.org/2000/svg" xmlns:xlink="http://www.w3.org/1999/xlink" width="320" zoomAndPan="magnify" viewBox="0 0 240 239.999995" height="320" preserveAspectRatio="xMidYMid meet" version="1.0"><defs><g/><clipPath id="cb39adb8d0"><path d="M 76 64 L 164 64 L 164 146.621094 L 76 146.621094 Z M 76 64 " clip-rule="nonzero"/></clipPath></defs><g clip-path="url(#cb39adb8d0)"><path fill="#1800ad" d="M 156.484375 70.484375 C 136.210938 52.882812 119.992188 83.171875 119.992188 83.171875 C 119.992188 83.171875 103.777344 52.882812 83.503906 70.484375 C 83.503906 70.484375 72.015625 81.839844 79.109375 97.191406 C 86.207031 112.539062 119.992188 146.613281 119.992188 146.613281 C 119.992188 146.613281 153.78125 112.539062 160.875 97.191406 C 167.96875 81.839844 156.480469 70.484375 156.480469 70.484375 Z M 156.484375 70.484375 " fill-opacity="1" fill-rule="nonzero"/></g><path fill="#dcdcdc" d="M 108.125 125.804688 C 107.640625 125.804688 107.175781 125.574219 106.882812 125.175781 L 99.828125 115.570312 L 87.25 115.570312 C 86.398438 115.570312 85.707031 114.878906 85.707031 114.027344 C 85.707031 113.179688 86.398438 112.488281 87.25 112.488281 L 100.605469 112.488281 C 101.097656 112.488281 101.558594 112.722656 101.847656 113.117188 L 107.503906 120.816406 L 114.109375 97.6875 C 114.292969 97.046875 114.863281 96.597656 115.53125 96.570312 C 116.195312 96.546875 116.804688 96.949219 117.039062 97.570312 L 124.242188 116.746094 L 128.386719 106.496094 C 128.589844 105.988281 129.046875 105.628906 129.585938 105.550781 C 130.125 105.46875 130.667969 105.675781 131.011719 106.101562 L 139.554688 116.582031 L 151.359375 116.582031 C 152.210938 116.582031 152.902344 117.273438 152.902344 118.125 C 152.902344 118.976562 152.210938 119.667969 151.359375 119.667969 L 138.820312 119.667969 C 138.359375 119.667969 137.917969 119.460938 137.625 119.101562 L 130.269531 110.070312 L 125.617188 121.570312 C 125.378906 122.160156 124.808594 122.550781 124.167969 122.535156 C 123.535156 122.527344 122.96875 122.128906 122.742188 121.535156 L 115.792969 103.035156 L 109.605469 124.691406 C 109.441406 125.257812 108.972656 125.683594 108.394531 125.785156 C 108.304688 125.800781 108.210938 125.808594 108.121094 125.808594 Z M 108.125 125.804688 " fill-opacity="1" fill-rule="nonzero"/><g fill="#1800ad" fill-opacity="1"><g transform="translate(72.726552, 174.286762)"><g><path d="M 12.8125 9.328125 C 9.96875 9.328125 7.679688 8.785156 5.953125 7.703125 C 4.234375 6.617188 3.171875 5.078125 2.765625 3.078125 L 8.8125 2.359375 C 9.019531 3.296875 9.476562 4.023438 10.1875 4.546875 C 10.90625 5.078125 11.835938 5.34375 12.984375 5.34375 C 14.648438 5.34375 15.867188 4.828125 16.640625 3.796875 C 17.421875 2.765625 17.8125 1.234375 17.8125 -0.796875 L 17.8125 -2.015625 L 17.859375 -4.3125 L 17.8125 -4.3125 C 16.476562 -1.46875 13.984375 -0.046875 10.328125 -0.046875 C 7.628906 -0.046875 5.535156 -1.0625 4.046875 -3.09375 C 2.554688 -5.125 1.8125 -8.03125 1.8125 -11.8125 C 1.8125 -15.613281 2.578125 -18.546875 4.109375 -20.609375 C 5.640625 -22.671875 7.863281 -23.703125 10.78125 -23.703125 C 14.164062 -23.703125 16.507812 -22.304688 17.8125 -19.515625 L 17.921875 -19.515625 C 17.921875 -20.015625 17.953125 -20.691406 18.015625 -21.546875 C 18.078125 -22.410156 18.144531 -22.976562 18.21875 -23.25 L 23.9375 -23.25 C 23.851562 -21.695312 23.8125 -19.90625 23.8125 -17.875 L 23.8125 -0.703125 C 23.8125 2.597656 22.867188 5.09375 20.984375 6.78125 C 19.109375 8.476562 16.382812 9.328125 12.8125 9.328125 Z M 17.859375 -11.953125 C 17.859375 -14.335938 17.429688 -16.195312 16.578125 -17.53125 C 15.722656 -18.875 14.507812 -19.546875 12.9375 -19.546875 C 9.707031 -19.546875 8.09375 -16.96875 8.09375 -11.8125 C 8.09375 -6.757812 9.691406 -4.234375 12.890625 -4.234375 C 14.492188 -4.234375 15.722656 -4.898438 16.578125 -6.234375 C 17.429688 -7.578125 17.859375 -9.484375 17.859375 -11.953125 Z M 17.859375 -11.953125 "/></g></g></g><g fill="#1800ad" fill-opacity="1"><g transform="translate(99.598732, 174.286762)"><g><path d="M 25.15625 -11.640625 C 25.15625 -7.878906 24.109375 -4.925781 22.015625 -2.78125 C 19.929688 -0.632812 17.039062 0.4375 13.34375 0.4375 C 9.71875 0.4375 6.875 -0.632812 4.8125 -2.78125 C 2.75 -4.9375 1.71875 -7.890625 1.71875 -11.640625 C 1.71875 -15.378906 2.75 -18.316406 4.8125 -20.453125 C 6.875 -22.597656 9.757812 -23.671875 13.46875 -23.671875 C 17.269531 -23.671875 20.164062 -22.632812 22.15625 -20.5625 C 24.15625 -18.5 25.15625 -15.523438 25.15625 -11.640625 Z M 18.84375 -11.640625 C 18.84375 -14.410156 18.390625 -16.414062 17.484375 -17.65625 C 16.585938 -18.90625 15.28125 -19.53125 13.5625 -19.53125 C 9.894531 -19.53125 8.0625 -16.898438 8.0625 -11.640625 C 8.0625 -9.046875 8.507812 -7.070312 9.40625 -5.71875 C 10.300781 -4.375 11.59375 -3.703125 13.28125 -3.703125 C 16.988281 -3.703125 18.84375 -6.347656 18.84375 -11.640625 Z M 18.84375 -11.640625 "/></g></g></g><g fill="#1800ad" fill-opacity="1"><g transform="translate(126.470911, 174.286762)"><g><path d="M 25.15625 -11.640625 C 25.15625 -7.878906 24.109375 -4.925781 22.015625 -2.78125 C 19.929688 -0.632812 17.039062 0.4375 13.34375 0.4375 C 9.71875 0.4375 6.875 -0.632812 4.8125 -2.78125 C 2.75 -4.9375 1.71875 -7.890625 1.71875 -11.640625 C 1.71875 -15.378906 2.75 -18.316406 4.8125 -20.453125 C 6.875 -22.597656 9.757812 -23.671875 13.46875 -23.671875 C 17.269531 -23.671875 20.164062 -22.632812 22.15625 -20.5625 C 24.15625 -18.5 25.15625 -15.523438 25.15625 -11.640625 Z M 18.84375 -11.640625 C 18.84375 -14.410156 18.390625 -16.414062 17.484375 -17.65625 C 16.585938 -18.90625 15.28125 -19.53125 13.5625 -19.53125 C 9.894531 -19.53125 8.0625 -16.898438 8.0625 -11.640625 C 8.0625 -9.046875 8.507812 -7.070312 9.40625 -5.71875 C 10.300781 -4.375 11.59375 -3.703125 13.28125 -3.703125 C 16.988281 -3.703125 18.84375 -6.347656 18.84375 -11.640625 Z M 18.84375 -11.640625 "/></g></g></g><g fill="#1800ad" fill-opacity="1"><g transform="translate(153.343091, 174.286762)"><g><path d="M 9.78125 -9.15625 L 4.828125 -9.15625 L 4.140625 -30.265625 L 10.46875 -30.265625 Z M 4.140625 0 L 4.140625 -5.796875 L 10.328125 -5.796875 L 10.328125 0 Z M 4.140625 0 "/></g></g></g></svg>